<svg width="50" height="50" viewBox="0 0 50 50" fill="none" xmlns="http://www.w3.org/2000/svg">
<path d="M16.248 34.0625C16.4123 34.1859 16.5992 34.2757 16.7982 34.3268C16.9971 34.3779 17.2042 34.3893 17.4076 34.3603C17.6109 34.3312 17.8066 34.2624 17.9833 34.1577C18.16 34.053 18.3144 33.9144 18.4375 33.75C19.3835 32.4886 20.6102 31.4648 22.0205 30.7597C23.4307 30.0546 24.9858 29.6875 26.5625 29.6875C28.1392 29.6875 29.6943 30.0546 31.1045 30.7597C32.5148 31.4648 33.7415 32.4886 34.6875 33.75C34.8106 33.9142 34.9649 34.0524 35.1414 34.157C35.318 34.2615 35.5134 34.3303 35.7165 34.3593C35.9197 34.3883 36.1265 34.377 36.3253 34.3261C36.5241 34.2752 36.7108 34.1856 36.875 34.0625C37.0392 33.9394 37.1774 33.7851 37.282 33.6086C37.3865 33.432 37.4553 33.2366 37.4843 33.0335C37.5133 32.8303 37.502 32.6235 37.4511 32.4247C37.4002 32.2259 37.3106 32.0392 37.1875 31.875C35.8039 30.02 33.9589 28.5595 31.8359 27.6387C32.9994 26.5764 33.8145 25.1873 34.1744 23.6535C34.5342 22.1197 34.4219 20.513 33.8522 19.0442C33.2826 17.5754 32.2822 16.3131 30.9823 15.423C29.6824 14.5329 28.1438 14.0566 26.5684 14.0566C24.9929 14.0566 23.4543 14.5329 22.1544 15.423C20.8546 16.3131 19.8541 17.5754 19.2845 19.0442C18.7148 20.513 18.6025 22.1197 18.9624 23.6535C19.3222 25.1873 20.1373 26.5764 21.3008 27.6387C19.1735 28.5578 17.3243 30.0184 15.9375 31.875C15.6887 32.2063 15.5816 32.6228 15.6398 33.0331C15.698 33.4433 15.9168 33.8136 16.248 34.0625ZM21.875 21.875C21.875 20.9479 22.1499 20.0416 22.665 19.2708C23.1801 18.4999 23.9121 17.8991 24.7687 17.5443C25.6252 17.1895 26.5677 17.0967 27.477 17.2776C28.3863 17.4584 29.2215 17.9049 29.8771 18.5604C30.5326 19.216 30.9791 20.0512 31.1599 20.9605C31.3408 21.8698 31.248 22.8123 30.8932 23.6688C30.5384 24.5254 29.9376 25.2574 29.1667 25.7725C28.3959 26.2876 27.4896 26.5625 26.5625 26.5625C25.3193 26.5625 24.127 26.0686 23.2479 25.1896C22.3689 24.3105 21.875 23.1182 21.875 21.875ZM40.625 4.6875H12.5C11.6712 4.6875 10.8763 5.01674 10.2903 5.60279C9.70424 6.18884 9.375 6.9837 9.375 7.8125V12.5H6.25C5.8356 12.5 5.43817 12.6646 5.14515 12.9576C4.85212 13.2507 4.6875 13.6481 4.6875 14.0625C4.6875 14.4769 4.85212 14.8743 5.14515 15.1674C5.43817 15.4604 5.8356 15.625 6.25 15.625H9.375V23.4375H6.25C5.8356 23.4375 5.43817 23.6021 5.14515 23.8951C4.85212 24.1882 4.6875 24.5856 4.6875 25C4.6875 25.4144 4.85212 25.8118 5.14515 26.1049C5.43817 26.3979 5.8356 26.5625 6.25 26.5625H9.375V34.375H6.25C5.8356 34.375 5.43817 34.5396 5.14515 34.8326C4.85212 35.1257 4.6875 35.5231 4.6875 35.9375C4.6875 36.3519 4.85212 36.7493 5.14515 37.0424C5.43817 37.3354 5.8356 37.5 6.25 37.5H9.375V42.1875C9.375 43.0163 9.70424 43.8112 10.2903 44.3972C10.8763 44.9833 11.6712 45.3125 12.5 45.3125H40.625C41.4538 45.3125 42.2487 44.9833 42.8347 44.3972C43.4208 43.8112 43.75 43.0163 43.75 42.1875V7.8125C43.75 6.9837 43.4208 6.18884 42.8347 5.60279C42.2487 5.01674 41.4538 4.6875 40.625 4.6875ZM40.625 42.1875H12.5V7.8125H40.625V42.1875Z" fill="white"/>
</svg>
