<svg width="100" height="100" viewBox="0 0 100 100" fill="none" xmlns="http://www.w3.org/2000/svg">
<path d="M19.664 79.0391C19.3737 79.3294 19.1434 79.6741 18.9863 80.0535C18.8291 80.4328 18.7482 80.8394 18.7482 81.25C18.7482 81.6606 18.8291 82.0672 18.9863 82.4466C19.1434 82.8259 19.3737 83.1706 19.664 83.461C19.9544 83.7513 20.2991 83.9816 20.6784 84.1388C21.0578 84.2959 21.4644 84.3768 21.875 84.3768C22.2856 84.3768 22.6922 84.2959 23.0715 84.1388C23.4509 83.9816 23.7956 83.7513 24.0859 83.461L55.3359 52.211C55.6265 51.9207 55.857 51.5761 56.0142 51.1967C56.1715 50.8173 56.2524 50.4107 56.2524 50C56.2524 49.5894 56.1715 49.1827 56.0142 48.8033C55.857 48.424 55.6265 48.0793 55.3359 47.7891L24.0859 16.5391C23.4995 15.9527 22.7042 15.6233 21.875 15.6233C21.0457 15.6233 20.2504 15.9527 19.664 16.5391C19.0777 17.1255 18.7482 17.9208 18.7482 18.75C18.7482 19.5793 19.0777 20.3746 19.664 20.961L48.707 50L19.664 79.0391ZM79.957 50L50.914 20.961C50.3277 20.3746 49.9982 19.5793 49.9982 18.75C49.9982 17.9208 50.3277 17.1255 50.914 16.5391C51.5004 15.9527 52.2957 15.6233 53.125 15.6233C53.9542 15.6233 54.7495 15.9527 55.3359 16.5391L86.5859 47.7891C86.8765 48.0793 87.107 48.424 87.2642 48.8033C87.4215 49.1827 87.5024 49.5894 87.5024 50C87.5024 50.4107 87.4215 50.8173 87.2642 51.1967C87.107 51.5761 86.8765 51.9207 86.5859 52.211L55.3359 83.461C55.0456 83.7513 54.7009 83.9816 54.3215 84.1388C53.9422 84.2959 53.5356 84.3768 53.125 84.3768C52.7144 84.3768 52.3078 84.2959 51.9284 84.1388C51.5491 83.9816 51.2044 83.7513 50.914 83.461C50.6237 83.1706 50.3934 82.8259 50.2363 82.4466C50.0791 82.0672 49.9982 81.6606 49.9982 81.25C49.9982 80.8394 50.0791 80.4328 50.2363 80.0535C50.3934 79.6741 50.6237 79.3294 50.914 79.0391L79.957 50Z" fill="white"/>
</svg>
