<svg width="25" height="25" viewBox="0 0 25 25" fill="none" xmlns="http://www.w3.org/2000/svg">
<path d="M13.3039 13.3039L1.94087 24.667C1.72766 24.8802 1.43847 25 1.13694 25C0.835403 25 0.546219 24.8802 0.333001 24.667C0.119784 24.4538 5.94397e-09 24.1646 0 23.8631C-5.94397e-09 23.5615 0.119784 23.2723 0.333001 23.0591L10.8935 12.5L0.333001 1.94087C0.119784 1.72766 0 1.43847 0 1.13694C0 0.835403 0.119784 0.546219 0.333001 0.333001C0.546219 0.119784 0.835403 0 1.13694 0C1.43847 0 1.72766 0.119784 1.94087 0.333001L13.3039 11.6961C13.4096 11.8016 13.4934 11.9269 13.5506 12.0649C13.6078 12.2028 13.6372 12.3507 13.6372 12.5C13.6372 12.6493 13.6078 12.7972 13.5506 12.9351C13.4934 13.0731 13.4096 13.1984 13.3039 13.3039ZM24.667 11.6961L13.3039 0.333001C13.0907 0.119784 12.8015 0 12.5 0C12.1985 0 11.9093 0.119784 11.6961 0.333001C11.4828 0.546219 11.3631 0.835403 11.3631 1.13694C11.3631 1.43847 11.4828 1.72766 11.6961 1.94087L22.2566 12.5L11.6961 23.0591C11.4828 23.2723 11.3631 23.5615 11.3631 23.8631C11.3631 24.1646 11.4828 24.4538 11.6961 24.667C11.9093 24.8802 12.1985 25 12.5 25C12.8015 25 13.0907 24.8802 13.3039 24.667L24.667 13.3039C24.7727 13.1984 24.8565 13.0731 24.9136 12.9351C24.9708 12.7972 25.0003 12.6493 25.0003 12.5C25.0003 12.3507 24.9708 12.2028 24.9136 12.0649C24.8565 11.9269 24.7727 11.8016 24.667 11.6961Z" fill="#006D78"/>
</svg>
