<svg width="50" height="50" viewBox="0 0 50 50" fill="none" xmlns="http://www.w3.org/2000/svg">
<path d="M25 4.6875C20.9826 4.6875 17.0554 5.87881 13.715 8.11077C10.3746 10.3427 7.77111 13.5151 6.23371 17.2267C4.6963 20.9384 4.29405 25.0225 5.07781 28.9628C5.86157 32.903 7.79615 36.5224 10.6369 39.3631C13.4777 42.2039 17.097 44.1384 21.0372 44.9222C24.9775 45.706 29.0616 45.3037 32.7733 43.7663C36.4849 42.2289 39.6573 39.6254 41.8892 36.285C44.1212 32.9446 45.3125 29.0174 45.3125 25C45.3068 19.6145 43.1649 14.4513 39.3568 10.6432C35.5487 6.83507 30.3855 4.69319 25 4.6875ZM42.1152 23.4375H37.3984C37.0477 20.6862 35.7933 18.1292 33.8321 16.168C31.8708 14.2067 29.3138 12.9523 26.5625 12.6016V7.88477C30.5623 8.25508 34.3066 10.0126 37.147 12.853C39.9874 15.6934 41.7449 19.4377 42.1152 23.4375ZM23.4375 23.4375H15.7578C16.0849 21.5197 16.9995 19.7508 18.3751 18.3751C19.7508 16.9995 21.5197 16.0849 23.4375 15.7578V23.4375ZM23.4375 26.5625V34.2422C21.5197 33.9151 19.7508 33.0005 18.3751 31.6249C16.9995 30.2492 16.0849 28.4803 15.7578 26.5625H23.4375ZM26.5625 26.5625H34.2422C33.9151 28.4803 33.0006 30.2492 31.6249 31.6249C30.2492 33.0005 28.4803 33.9151 26.5625 34.2422V26.5625ZM26.5625 23.4375V15.7578C28.4803 16.0849 30.2492 16.9995 31.6249 18.3751C33.0006 19.7508 33.9151 21.5197 34.2422 23.4375H26.5625ZM23.4375 7.88477V12.6016C20.6862 12.9523 18.1292 14.2067 16.168 16.168C14.2067 18.1292 12.9523 20.6862 12.6016 23.4375H7.88477C8.25509 19.4377 10.0126 15.6934 12.853 12.853C15.6934 10.0126 19.4377 8.25508 23.4375 7.88477ZM7.88477 26.5625H12.6016C12.9523 29.3138 14.2067 31.8708 16.168 33.832C18.1292 35.7933 20.6862 37.0477 23.4375 37.3984V42.1152C19.4377 41.7449 15.6934 39.9874 12.853 37.147C10.0126 34.3066 8.25509 30.5623 7.88477 26.5625ZM26.5625 42.1152V37.3984C29.3138 37.0477 31.8708 35.7933 33.8321 33.832C35.7933 31.8708 37.0477 29.3138 37.3984 26.5625H42.1152C41.7449 30.5623 39.9874 34.3066 37.147 37.147C34.3066 39.9874 30.5623 41.7449 26.5625 42.1152Z" fill="white"/>
</svg>
