<svg width="36" height="36" viewBox="0 0 36 36" fill="none" xmlns="http://www.w3.org/2000/svg">
<path d="M23.625 21.375C23.625 21.6734 23.5065 21.9596 23.2955 22.1705C23.0845 22.3815 22.7984 22.5 22.5 22.5H13.5C13.2016 22.5 12.9155 22.3815 12.7045 22.1705C12.4935 21.9596 12.375 21.6734 12.375 21.375C12.375 21.0767 12.4935 20.7905 12.7045 20.5795C12.9155 20.3686 13.2016 20.25 13.5 20.25H22.5C22.7984 20.25 23.0845 20.3686 23.2955 20.5795C23.5065 20.7905 23.625 21.0767 23.625 21.375ZM22.5 15.75H13.5C13.2016 15.75 12.9155 15.8686 12.7045 16.0795C12.4935 16.2905 12.375 16.5767 12.375 16.875C12.375 17.1734 12.4935 17.4596 12.7045 17.6705C12.9155 17.8815 13.2016 18 13.5 18H22.5C22.7984 18 23.0845 17.8815 23.2955 17.6705C23.5065 17.4596 23.625 17.1734 23.625 16.875C23.625 16.5767 23.5065 16.2905 23.2955 16.0795C23.0845 15.8686 22.7984 15.75 22.5 15.75ZM30.375 6.75004V30.375C30.375 30.9718 30.1379 31.5441 29.716 31.966C29.294 32.388 28.7217 32.625 28.125 32.625H7.875C7.27826 32.625 6.70597 32.388 6.28401 31.966C5.86205 31.5441 5.625 30.9718 5.625 30.375V6.75004C5.625 6.1533 5.86205 5.58101 6.28401 5.15905C6.70597 4.73709 7.27826 4.50004 7.875 4.50004H12.9741C13.6062 3.79231 14.3806 3.22606 15.2467 2.83836C16.1129 2.45065 17.0511 2.25024 18 2.25024C18.9489 2.25024 19.8871 2.45065 20.7533 2.83836C21.6194 3.22606 22.3938 3.79231 23.0259 4.50004H28.125C28.7217 4.50004 29.294 4.73709 29.716 5.15905C30.1379 5.58101 30.375 6.1533 30.375 6.75004ZM13.5 9.00004H22.5C22.5 7.80657 22.0259 6.66197 21.182 5.81806C20.3381 4.97415 19.1935 4.50004 18 4.50004C16.8065 4.50004 15.6619 4.97415 14.818 5.81806C13.9741 6.66197 13.5 7.80657 13.5 9.00004ZM28.125 6.75004H24.3633C24.6192 7.47259 24.75 8.23351 24.75 9.00004V10.125C24.75 10.4234 24.6315 10.7096 24.4205 10.9205C24.2095 11.1315 23.9234 11.25 23.625 11.25H12.375C12.0766 11.25 11.7905 11.1315 11.5795 10.9205C11.3685 10.7096 11.25 10.4234 11.25 10.125V9.00004C11.25 8.23351 11.3808 7.47259 11.6367 6.75004H7.875V30.375H28.125V6.75004Z" fill="white"/>
</svg>
