<svg width="36" height="36" viewBox="0 0 36 36" fill="none" xmlns="http://www.w3.org/2000/svg">
<path d="M28.9208 27.3291C29.0254 27.4336 29.1083 27.5577 29.1648 27.6943C29.2214 27.8308 29.2505 27.9772 29.2505 28.125C29.2505 28.2728 29.2214 28.4192 29.1648 28.5558C29.1083 28.6923 29.0254 28.8164 28.9208 28.921C28.8163 29.0255 28.6922 29.1084 28.5557 29.165C28.4191 29.2215 28.2727 29.2506 28.1249 29.2506C27.9771 29.2506 27.8307 29.2215 27.6941 29.165C27.5576 29.1084 27.4335 29.0255 27.329 28.921L17.9999 19.5905L8.67083 28.921C8.45973 29.132 8.17343 29.2506 7.87489 29.2506C7.57636 29.2506 7.29005 29.132 7.07896 28.921C6.86786 28.7099 6.74927 28.4236 6.74927 28.125C6.74927 27.8265 6.86786 27.5402 7.07896 27.3291L16.4094 18L7.07896 8.67095C6.86786 8.45986 6.74927 8.17355 6.74927 7.87502C6.74927 7.57648 6.86786 7.29017 7.07896 7.07908C7.29005 6.86798 7.57636 6.74939 7.87489 6.74939C8.17343 6.74939 8.45973 6.86798 8.67083 7.07908L17.9999 16.4095L27.329 7.07908C27.5401 6.86798 27.8264 6.74939 28.1249 6.74939C28.4234 6.74939 28.7097 6.86798 28.9208 7.07908C29.1319 7.29017 29.2505 7.57648 29.2505 7.87502C29.2505 8.17355 29.1319 8.45986 28.9208 8.67095L19.5904 18L28.9208 27.3291Z" fill="white"/>
</svg>
