<svg width="50" height="50" viewBox="0 0 50 50" fill="none" xmlns="http://www.w3.org/2000/svg">
<path d="M42.0157 24.1484C42.1163 23.9652 42.1791 23.7636 42.2004 23.5556C42.2218 23.3476 42.2011 23.1374 42.1397 22.9376C42.0783 22.7377 41.9774 22.5522 41.843 22.392C41.7087 22.2319 41.5435 22.1003 41.3573 22.0051C41.1712 21.9099 40.9678 21.8531 40.7593 21.838C40.5507 21.8228 40.3413 21.8497 40.1433 21.9169C39.9454 21.9842 39.7629 22.0905 39.6068 22.2296C39.4507 22.3687 39.324 22.5377 39.2344 22.7266C37.79 25.5093 35.5377 27.7901 32.7735 29.2695L29.5352 21.9805C30.7728 21.0967 31.7257 19.871 32.2768 18.4536C32.8279 17.0362 32.9533 15.4887 32.6377 14.0011C32.3221 12.5134 31.5791 11.1502 30.5 10.0786C29.4208 9.00711 28.0524 8.27383 26.5625 7.96875V4.6875C26.5625 4.2731 26.3979 3.87567 26.1049 3.58265C25.8119 3.28962 25.4144 3.125 25 3.125C24.5856 3.125 24.1882 3.28962 23.8952 3.58265C23.6022 3.87567 23.4375 4.2731 23.4375 4.6875V7.96875C21.9477 8.27383 20.5792 9.00711 19.5001 10.0786C18.4209 11.1502 17.678 12.5134 17.3624 14.0011C17.0468 15.4887 17.1722 17.0362 17.7233 18.4536C18.2744 19.871 19.2272 21.0967 20.4649 21.9805L11.0723 43.1152C10.9878 43.3029 10.9412 43.5054 10.9352 43.7111C10.9292 43.9168 10.9639 44.1217 11.0373 44.314C11.1107 44.5063 11.2214 44.6821 11.363 44.8315C11.5046 44.9809 11.6742 45.1008 11.8623 45.1844C12.0504 45.268 12.2531 45.3137 12.4588 45.3187C12.6646 45.3237 12.8693 45.2881 13.0612 45.2138C13.2531 45.1395 13.4285 45.028 13.5772 44.8857C13.7259 44.7435 13.845 44.5732 13.9278 44.3848L18.8379 33.3379C20.819 34.0277 22.9023 34.3783 25 34.375C27.0989 34.3726 29.1834 34.0289 31.1719 33.3574L36.0723 44.3848C36.2419 44.7615 36.5538 45.0557 36.9398 45.2031C37.3257 45.3504 37.7543 45.3389 38.1318 45.1711C38.5093 45.0032 38.805 44.6927 38.9542 44.3075C39.1033 43.9222 39.0938 43.4935 38.9278 43.1152L34.045 32.1289C37.4594 30.3518 40.2428 27.5651 42.0157 24.1484ZM25 10.9375C25.9271 10.9375 26.8334 11.2124 27.6043 11.7275C28.3751 12.2426 28.9759 12.9746 29.3307 13.8312C29.6855 14.6877 29.7783 15.6302 29.5975 16.5395C29.4166 17.4488 28.9702 18.284 28.3146 18.9396C27.659 19.5951 26.8238 20.0416 25.9145 20.2224C25.0052 20.4033 24.0627 20.3105 23.2062 19.9557C22.3497 19.6009 21.6176 19.0001 21.1025 18.2292C20.5875 17.4584 20.3125 16.5521 20.3125 15.625C20.3125 14.3818 20.8064 13.1895 21.6855 12.3104C22.5646 11.4314 23.7568 10.9375 25 10.9375ZM25 31.25C23.3412 31.252 21.6927 30.9883 20.1172 30.4688L23.3243 23.2539C24.4307 23.4987 25.5772 23.4987 26.6836 23.2539L29.9024 30.4922C28.3167 30.9942 26.6633 31.2497 25 31.25Z" fill="white"/>
</svg>
