<svg width="50" height="50" viewBox="0 0 50 50" fill="none" xmlns="http://www.w3.org/2000/svg">
<path d="M46.875 39.625H43.75V21.5683C43.7501 21.1358 43.6604 20.708 43.4865 20.312C43.3127 19.9159 43.0586 19.5603 42.7402 19.2676L27.1152 4.52536C27.1076 4.5187 27.1004 4.51152 27.0938 4.50388C26.5185 3.9807 25.7688 3.6908 24.9912 3.6908C24.2136 3.6908 23.4639 3.9807 22.8887 4.50388L22.8672 4.52536L7.25977 19.2676C6.9414 19.5603 6.68727 19.9159 6.51346 20.312C6.33965 20.708 6.24993 21.1358 6.25 21.5683V39.625H3.125C2.7106 39.625 2.31317 39.7896 2.02015 40.0826C1.72712 40.3756 1.5625 40.7731 1.5625 41.1875C1.5625 41.6019 1.72712 41.9993 2.02015 42.2923C2.31317 42.5854 2.7106 42.75 3.125 42.75H46.875C47.2894 42.75 47.6868 42.5854 47.9799 42.2923C48.2729 41.9993 48.4375 41.6019 48.4375 41.1875C48.4375 40.7731 48.2729 40.3756 47.9799 40.0826C47.6868 39.7896 47.2894 39.625 46.875 39.625ZM9.375 21.5683L9.39648 21.5488L25 6.81247L40.6055 21.5449L40.627 21.5644V39.625H31.25V30.25C31.25 29.4212 30.9208 28.6263 30.3347 28.0403C29.7487 27.4542 28.9538 27.125 28.125 27.125H21.875C21.0462 27.125 20.2513 27.4542 19.6653 28.0403C19.0792 28.6263 18.75 29.4212 18.75 30.25V39.625H9.375V21.5683ZM28.125 39.625H21.875V30.25H28.125V39.625Z" fill="white"/>
</svg>
