<svg width="32" height="32" viewBox="0 0 32 32" fill="none" xmlns="http://www.w3.org/2000/svg">
<path d="M18.9296 14.0464C18.9296 14.3054 18.8267 14.5538 18.6435 14.7369C18.4604 14.9201 18.212 15.023 17.953 15.023H10.1405C9.88151 15.023 9.63311 14.9201 9.44997 14.7369C9.26683 14.5538 9.16394 14.3054 9.16394 14.0464C9.16394 13.7874 9.26683 13.539 9.44997 13.3559C9.63311 13.1727 9.88151 13.0698 10.1405 13.0698H17.953C18.212 13.0698 18.4604 13.1727 18.6435 13.3559C18.8267 13.539 18.9296 13.7874 18.9296 14.0464ZM28.4096 28.4092C28.3189 28.5 28.2112 28.572 28.0926 28.6212C27.974 28.6703 27.847 28.6956 27.7186 28.6956C27.5903 28.6956 27.4632 28.6703 27.3447 28.6212C27.2261 28.572 27.1184 28.5 27.0277 28.4092L20.9169 22.2971C18.7901 24.0686 16.0621 24.952 13.3006 24.7635C10.539 24.5749 7.95649 23.329 6.09018 21.2848C4.22387 19.2407 3.21748 16.5557 3.28037 13.7885C3.34326 11.0212 4.47059 8.38472 6.42784 6.42747C8.38509 4.47022 11.0216 3.34289 13.7888 3.28C16.5561 3.21711 19.2411 4.2235 21.2852 6.08981C23.3294 7.95613 24.5753 10.5387 24.7638 13.3002C24.9524 16.0618 24.069 18.7897 22.2975 20.9165L28.4096 27.0273C28.5003 27.118 28.5724 27.2257 28.6215 27.3443C28.6707 27.4629 28.696 27.5899 28.696 27.7183C28.696 27.8466 28.6707 27.9737 28.6215 28.0922C28.5724 28.2108 28.5003 28.3185 28.4096 28.4092ZM14.0468 22.8355C15.7851 22.8355 17.4843 22.32 18.9297 21.3542C20.3751 20.3885 21.5016 19.0158 22.1668 17.4098C22.832 15.8038 23.0061 14.0366 22.6669 12.3317C22.3278 10.6268 21.4907 9.06076 20.2616 7.83158C19.0324 6.60241 17.4663 5.76534 15.7614 5.42621C14.0565 5.08708 12.2893 5.26113 10.6833 5.92636C9.07734 6.59158 7.70467 7.71809 6.73892 9.16345C5.77316 10.6088 5.25769 12.3081 5.25769 14.0464C5.26028 16.3766 6.1871 18.6106 7.83481 20.2583C9.48251 21.9061 11.7165 22.8329 14.0468 22.8355Z" fill="#006D78"/>
</svg>
