<svg width="36" height="36" viewBox="0 0 36 36" fill="none" xmlns="http://www.w3.org/2000/svg">
<path d="M29.25 5.625H6.75C5.85489 5.625 4.99645 5.98058 4.36351 6.61351C3.73058 7.24645 3.375 8.10489 3.375 9V24.75C3.375 25.6451 3.73058 26.5036 4.36351 27.1365C4.99645 27.7694 5.85489 28.125 6.75 28.125H29.25C30.1451 28.125 31.0036 27.7694 31.6365 27.1365C32.2694 26.5036 32.625 25.6451 32.625 24.75V9C32.625 8.10489 32.2694 7.24645 31.6365 6.61351C31.0036 5.98058 30.1451 5.625 29.25 5.625ZM30.375 24.75C30.375 25.0484 30.2565 25.3345 30.0455 25.5455C29.8345 25.7565 29.5484 25.875 29.25 25.875H6.75C6.45163 25.875 6.16548 25.7565 5.9545 25.5455C5.74353 25.3345 5.625 25.0484 5.625 24.75V9C5.625 8.70163 5.74353 8.41548 5.9545 8.2045C6.16548 7.99353 6.45163 7.875 6.75 7.875H29.25C29.5484 7.875 29.8345 7.99353 30.0455 8.2045C30.2565 8.41548 30.375 8.70163 30.375 9V24.75ZM23.625 31.5C23.625 31.7984 23.5065 32.0845 23.2955 32.2955C23.0845 32.5065 22.7984 32.625 22.5 32.625H13.5C13.2016 32.625 12.9155 32.5065 12.7045 32.2955C12.4935 32.0845 12.375 31.7984 12.375 31.5C12.375 31.2016 12.4935 30.9155 12.7045 30.7045C12.9155 30.4935 13.2016 30.375 13.5 30.375H22.5C22.7984 30.375 23.0845 30.4935 23.2955 30.7045C23.5065 30.9155 23.625 31.2016 23.625 31.5ZM23.1244 15.9384L16.3744 11.4384C16.2049 11.3254 16.0079 11.2604 15.8044 11.2506C15.601 11.2407 15.3986 11.2863 15.219 11.3825C15.0394 11.4786 14.8893 11.6217 14.7847 11.7965C14.6801 11.9713 14.6249 12.1713 14.625 12.375V21.375C14.6249 21.5787 14.6801 21.7787 14.7847 21.9535C14.8893 22.1283 15.0394 22.2714 15.219 22.3675C15.3986 22.4637 15.601 22.5093 15.8044 22.4994C16.0079 22.4896 16.2049 22.4246 16.3744 22.3116L23.1244 17.8116C23.2787 17.7089 23.4052 17.5696 23.4928 17.4062C23.5803 17.2429 23.6261 17.0604 23.6261 16.875C23.6261 16.6896 23.5803 16.5071 23.4928 16.3438C23.4052 16.1804 23.2787 16.0411 23.1244 15.9384ZM16.875 19.2727V14.4844L20.4722 16.875L16.875 19.2727Z" fill="white"/>
</svg>
