<svg width="32" height="32" viewBox="0 0 32 32" fill="none" xmlns="http://www.w3.org/2000/svg">
<path d="M29.6718 7.21045V13.0698C29.6718 13.3288 29.5689 13.5772 29.3858 13.7604C29.2026 13.9435 28.9542 14.0464 28.6952 14.0464H22.8358C22.5768 14.0464 22.3285 13.9435 22.1453 13.7604C21.9622 13.5772 21.8593 13.3288 21.8593 13.0698C21.8593 12.8108 21.9622 12.5624 22.1453 12.3793C22.3285 12.1962 22.5768 12.0933 22.8358 12.0933H26.1806L22.9347 9.11963L22.9042 9.09033C21.5469 7.73351 19.8198 6.80671 17.9388 6.42572C16.0578 6.04472 14.1062 6.22642 12.3279 6.94812C10.5496 7.66982 9.0233 8.89952 7.93978 10.4836C6.85625 12.0677 6.26351 13.9359 6.23559 15.8549C6.20767 17.7739 6.74581 19.6586 7.78279 21.2735C8.81977 22.8885 10.3096 24.162 12.0662 24.9352C13.8228 25.7083 15.7683 25.9467 17.6595 25.6206C19.5508 25.2945 21.3041 24.4183 22.7004 23.1016C22.8886 22.9235 23.1399 22.8275 23.3989 22.8347C23.658 22.8419 23.9035 22.9518 24.0816 23.14C24.2596 23.3283 24.3556 23.5796 24.3484 23.8386C24.3412 24.0976 24.2314 24.3432 24.0431 24.5212C21.8721 26.5802 18.9921 27.725 15.9999 27.7183H15.8388C13.9195 27.692 12.0361 27.1947 10.354 26.27C8.67199 25.3454 7.24281 24.0217 6.19212 22.4154C5.14143 20.809 4.5014 18.9692 4.32828 17.0576C4.15516 15.1459 4.45425 13.2211 5.19927 11.4521C5.94428 9.68314 7.1124 8.12426 8.60098 6.91247C10.0895 5.70068 11.853 4.87309 13.7363 4.50243C15.6196 4.13178 17.5652 4.2294 19.4019 4.78673C21.2387 5.34405 22.9104 6.34402 24.2702 7.69873L27.7187 10.8481V7.21045C27.7187 6.95145 27.8215 6.70306 28.0047 6.51992C28.1878 6.33678 28.4362 6.23389 28.6952 6.23389C28.9542 6.23389 29.2026 6.33678 29.3858 6.51992C29.5689 6.70306 29.6718 6.95145 29.6718 7.21045Z" fill="#006D78"/>
</svg>
