<svg width="347" height="347" viewBox="0 0 347 347" fill="none" xmlns="http://www.w3.org/2000/svg">
<rect width="347" height="347" rx="173.5" fill="white"/>
<path d="M176.652 227.94L96.7616 310.371L92.403 311.628C117.09 326.273 145.261 334 173.96 334C202.659 334 230.829 326.273 255.516 311.628L251.799 310.628L176.652 227.94ZM173.908 14.0001C139.886 13.9947 106.748 24.8498 79.315 44.9867C51.8819 65.1237 31.5834 93.4925 21.3717 125.968C11.1599 158.443 11.5672 193.331 22.5344 225.559C33.5016 257.786 54.4568 285.673 82.3527 305.163L145.244 158.106V157.953L173.447 81.756L204.854 159.338L248.261 263.319L246.056 262.806L246.21 262.96L248.363 263.422L265.721 305.112C293.612 285.602 314.555 257.695 325.502 225.452C336.449 193.209 336.829 158.312 326.587 125.838C316.346 93.3634 296.016 65.0064 268.556 44.8921C241.096 24.7778 207.939 13.9557 173.908 14.0001ZM221.853 157.901L174.344 41.3232L127.143 157.901H40.3308C40.3308 157.901 53.5861 41.1692 175.37 39.8864C289.513 38.6806 307.563 157.901 307.563 157.901H221.853Z" fill="#2B2C85"/>
</svg>
